<mxfile host="app.diagrams.net" modified="2021-02-18T09:04:32.139Z" agent="5.0 (X11)" etag="quThyNAuoVwPGltJV-lc" version="14.3.2" type="github">
  <diagram id="C5RBs43oDa-KdzZeNtuy" name="Page-1">
    <mxGraphModel dx="1673" dy="864" grid="1" gridSize="10" guides="1" tooltips="1" connect="1" arrows="1" fold="1" page="1" pageScale="1" pageWidth="827" pageHeight="1169" math="0" shadow="0">
      <root>
        <mxCell id="WIyWlLk6GJQsqaUBKTNV-0" />
        <mxCell id="WIyWlLk6GJQsqaUBKTNV-1" parent="WIyWlLk6GJQsqaUBKTNV-0" />
        <mxCell id="N6XBH8qFe-4Bi86oJnUj-23" value="" style="edgeStyle=orthogonalEdgeStyle;rounded=0;orthogonalLoop=1;jettySize=auto;html=1;" edge="1" parent="WIyWlLk6GJQsqaUBKTNV-1" source="N6XBH8qFe-4Bi86oJnUj-21" target="N6XBH8qFe-4Bi86oJnUj-22">
          <mxGeometry relative="1" as="geometry" />
        </mxCell>
        <mxCell id="N6XBH8qFe-4Bi86oJnUj-26" value="Ja" style="edgeLabel;html=1;align=center;verticalAlign=middle;resizable=0;points=[];" vertex="1" connectable="0" parent="N6XBH8qFe-4Bi86oJnUj-23">
          <mxGeometry x="-0.0136" y="4" relative="1" as="geometry">
            <mxPoint x="-4.030000000000001" y="0.3099999999999996" as="offset" />
          </mxGeometry>
        </mxCell>
        <mxCell id="N6XBH8qFe-4Bi86oJnUj-25" value="" style="edgeStyle=orthogonalEdgeStyle;rounded=0;orthogonalLoop=1;jettySize=auto;html=1;" edge="1" parent="WIyWlLk6GJQsqaUBKTNV-1" source="N6XBH8qFe-4Bi86oJnUj-21" target="N6XBH8qFe-4Bi86oJnUj-24">
          <mxGeometry relative="1" as="geometry" />
        </mxCell>
        <mxCell id="N6XBH8qFe-4Bi86oJnUj-27" value="Nein" style="edgeLabel;html=1;align=center;verticalAlign=middle;resizable=0;points=[];" vertex="1" connectable="0" parent="N6XBH8qFe-4Bi86oJnUj-25">
          <mxGeometry x="-0.8208" y="-1" relative="1" as="geometry">
            <mxPoint x="11.030000000000001" y="29" as="offset" />
          </mxGeometry>
        </mxCell>
        <mxCell id="N6XBH8qFe-4Bi86oJnUj-21" value="Delta E &amp;lt; 0?" style="rhombus;whiteSpace=wrap;html=1;strokeWidth=4;strokeColor=#009900;" vertex="1" parent="WIyWlLk6GJQsqaUBKTNV-1">
          <mxGeometry x="380" y="630" width="120" height="80" as="geometry" />
        </mxCell>
        <mxCell id="N6XBH8qFe-4Bi86oJnUj-40" style="edgeStyle=orthogonalEdgeStyle;rounded=0;orthogonalLoop=1;jettySize=auto;html=1;exitX=0.5;exitY=1;exitDx=0;exitDy=0;entryX=1;entryY=0.5;entryDx=0;entryDy=0;" edge="1" parent="WIyWlLk6GJQsqaUBKTNV-1" source="N6XBH8qFe-4Bi86oJnUj-22" target="N6XBH8qFe-4Bi86oJnUj-28">
          <mxGeometry relative="1" as="geometry">
            <Array as="points">
              <mxPoint x="280" y="790" />
              <mxPoint x="440" y="790" />
              <mxPoint x="440" y="830" />
              <mxPoint x="710" y="830" />
              <mxPoint x="710" y="495" />
            </Array>
          </mxGeometry>
        </mxCell>
        <mxCell id="N6XBH8qFe-4Bi86oJnUj-22" value="&lt;font color=&quot;#FFFFFF&quot;&gt;Akzeptieren&lt;/font&gt;" style="ellipse;whiteSpace=wrap;html=1;fillColor=#CC0000;" vertex="1" parent="WIyWlLk6GJQsqaUBKTNV-1">
          <mxGeometry x="220" y="690" width="120" height="80" as="geometry" />
        </mxCell>
        <mxCell id="N6XBH8qFe-4Bi86oJnUj-30" style="edgeStyle=orthogonalEdgeStyle;rounded=0;orthogonalLoop=1;jettySize=auto;html=1;entryX=1;entryY=0.5;entryDx=0;entryDy=0;" edge="1" parent="WIyWlLk6GJQsqaUBKTNV-1" source="N6XBH8qFe-4Bi86oJnUj-24" target="N6XBH8qFe-4Bi86oJnUj-28">
          <mxGeometry relative="1" as="geometry">
            <Array as="points">
              <mxPoint x="600" y="790" />
              <mxPoint x="440" y="790" />
              <mxPoint x="440" y="830" />
              <mxPoint x="710" y="830" />
              <mxPoint x="710" y="495" />
            </Array>
          </mxGeometry>
        </mxCell>
        <mxCell id="N6XBH8qFe-4Bi86oJnUj-44" value="&lt;font style=&quot;font-size: 17px&quot;&gt;Iterieren&lt;/font&gt;" style="edgeLabel;html=1;align=center;verticalAlign=middle;resizable=0;points=[];" vertex="1" connectable="0" parent="N6XBH8qFe-4Bi86oJnUj-30">
          <mxGeometry x="0.3145" y="-3" relative="1" as="geometry">
            <mxPoint x="-3" as="offset" />
          </mxGeometry>
        </mxCell>
        <mxCell id="N6XBH8qFe-4Bi86oJnUj-24" value="&lt;div&gt;&lt;font color=&quot;#FFFFFF&quot;&gt;Akzeptieren wenn&lt;br&gt;&lt;/font&gt;&lt;/div&gt;&lt;div&gt;&lt;font color=&quot;#FFFFFF&quot;&gt;Wahrsch. &lt;i&gt;p&lt;/i&gt;&lt;/font&gt;&lt;/div&gt;" style="ellipse;whiteSpace=wrap;html=1;fillColor=#CC0000;" vertex="1" parent="WIyWlLk6GJQsqaUBKTNV-1">
          <mxGeometry x="540" y="690" width="120" height="80" as="geometry" />
        </mxCell>
        <mxCell id="N6XBH8qFe-4Bi86oJnUj-33" value="" style="edgeStyle=orthogonalEdgeStyle;rounded=0;orthogonalLoop=1;jettySize=auto;html=1;" edge="1" parent="WIyWlLk6GJQsqaUBKTNV-1" source="N6XBH8qFe-4Bi86oJnUj-28" target="N6XBH8qFe-4Bi86oJnUj-32">
          <mxGeometry relative="1" as="geometry" />
        </mxCell>
        <mxCell id="N6XBH8qFe-4Bi86oJnUj-28" value="Zustand verändern (zufällig)" style="ellipse;whiteSpace=wrap;html=1;fontColor=#ffffff;fillColor=#CC0000;" vertex="1" parent="WIyWlLk6GJQsqaUBKTNV-1">
          <mxGeometry x="380" y="455" width="120" height="80" as="geometry" />
        </mxCell>
        <mxCell id="N6XBH8qFe-4Bi86oJnUj-39" style="edgeStyle=orthogonalEdgeStyle;rounded=0;orthogonalLoop=1;jettySize=auto;html=1;exitX=0.5;exitY=1;exitDx=0;exitDy=0;entryX=0.5;entryY=0;entryDx=0;entryDy=0;" edge="1" parent="WIyWlLk6GJQsqaUBKTNV-1" source="N6XBH8qFe-4Bi86oJnUj-32" target="N6XBH8qFe-4Bi86oJnUj-21">
          <mxGeometry relative="1" as="geometry" />
        </mxCell>
        <mxCell id="N6XBH8qFe-4Bi86oJnUj-32" value="Energie messen" style="whiteSpace=wrap;html=1;strokeColor=none;fillColor=#009900;" vertex="1" parent="WIyWlLk6GJQsqaUBKTNV-1">
          <mxGeometry x="380" y="545" width="120" height="40" as="geometry" />
        </mxCell>
        <mxCell id="N6XBH8qFe-4Bi86oJnUj-36" style="edgeStyle=orthogonalEdgeStyle;rounded=0;orthogonalLoop=1;jettySize=auto;html=1;exitX=0.5;exitY=1;exitDx=0;exitDy=0;entryX=0.5;entryY=0;entryDx=0;entryDy=0;" edge="1" parent="WIyWlLk6GJQsqaUBKTNV-1" source="N6XBH8qFe-4Bi86oJnUj-34" target="N6XBH8qFe-4Bi86oJnUj-28">
          <mxGeometry relative="1" as="geometry" />
        </mxCell>
        <mxCell id="N6XBH8qFe-4Bi86oJnUj-34" value="Energie messen" style="whiteSpace=wrap;html=1;strokeColor=none;fillColor=#009900;" vertex="1" parent="WIyWlLk6GJQsqaUBKTNV-1">
          <mxGeometry x="380" y="365" width="120" height="40" as="geometry" />
        </mxCell>
        <mxCell id="N6XBH8qFe-4Bi86oJnUj-38" style="edgeStyle=orthogonalEdgeStyle;rounded=0;orthogonalLoop=1;jettySize=auto;html=1;exitX=0.5;exitY=1;exitDx=0;exitDy=0;entryX=0.5;entryY=0;entryDx=0;entryDy=0;" edge="1" parent="WIyWlLk6GJQsqaUBKTNV-1" source="N6XBH8qFe-4Bi86oJnUj-37" target="N6XBH8qFe-4Bi86oJnUj-34">
          <mxGeometry relative="1" as="geometry" />
        </mxCell>
        <mxCell id="N6XBH8qFe-4Bi86oJnUj-37" value="Startzustand (zufällig)" style="ellipse;whiteSpace=wrap;html=1;fontColor=#ffffff;fillColor=#CC0000;" vertex="1" parent="WIyWlLk6GJQsqaUBKTNV-1">
          <mxGeometry x="380" y="275" width="120" height="80" as="geometry" />
        </mxCell>
      </root>
    </mxGraphModel>
  </diagram>
</mxfile>
